<?xml version="1.0" encoding="utf-8"?>
<!-- Generator: Adobe Illustrator 16.0.0, SVG Export Plug-In . SVG Version: 6.00 Build 0)  -->
<!DOCTYPE svg PUBLIC "-//W3C//DTD SVG 1.1//EN" "http://www.w3.org/Graphics/SVG/1.1/DTD/svg11.dtd">
<svg version="1.1" id="레이어_1" xmlns="http://www.w3.org/2000/svg" xmlns:xlink="http://www.w3.org/1999/xlink" x="0px"
	 y="0px" width="108.891px" height="49.215px" viewBox="0 0 108.891 49.215" enable-background="new 0 0 108.891 49.215"
	 xml:space="preserve">
<g>
	<polygon fill="#FFFFFF" points="0,28.393 4.279,28.393 4.279,37.302 4.344,37.302 11.598,28.393 16.107,28.393 8.033,37.63 
		16.959,48.886 11.734,48.886 4.344,38.965 4.279,38.965 4.279,48.886 0,48.886 	"/>
	<path fill="#FFFFFF" d="M41.74,34.848c-0.035,0.16-2.334,10.386-2.334,10.386s-3.479-10.247-3.523-10.386h-1.922
		c-0.045,0.144-3.213,10.564-3.213,10.564s-2.609-10.409-2.646-10.564h-3.438c0.074,0.258,3.887,13.888,3.926,14.039h3.238
		c0.047-0.144,2.977-8.974,2.977-8.974s3.25,8.836,3.303,8.974h3.27c0.037-0.159,3.377-13.787,3.439-14.039H41.74z"/>
	<path fill="#FFFFFF" d="M55.828,46.69v2.195h3.777v-9.535c0-2.51-0.709-4.833-5.826-4.833c-4.063,0-6.229,1.513-6.283,4.371h4.047
		c0-0.063,0.002-0.125,0.002-0.125c0.059-0.989,0.174-3.047,2.201-3.047c1.461,0,2.082,0.862,2.082,2.887v2.494l-0.1,0.006
		c-2.176,0.085-8.795,0.347-8.795,4.655c0,1.971,1.838,3.456,4.279,3.456C54.363,49.215,55.828,46.69,55.828,46.69 M52.76,47.357
		c-1.187,0-1.918-0.806-1.918-2.11c0-1.67,1.639-2.66,4.873-2.945l0.113-0.011v1.161C55.828,45.393,54.773,47.357,52.76,47.357"/>
	<path fill="#FFFFFF" d="M69.793,49.215c0.879,0,1.752-0.082,2.676-0.169h0.014v-1.868c-0.557,0.154-1.18,0.18-1.674,0.18
		c-1.604,0-2.145-0.615-2.145-2.44v-8.545h4.414v-1.525h-4.414v-5.464c-0.283,0.156-3.674,2.013-3.775,2.066v3.397h-2.932v1.525
		h2.932v8.998C64.889,48.571,66.764,49.215,69.793,49.215"/>
	<path fill="#FFFFFF" d="M81.977,49.215c2.242,0,3.213-0.281,4.971-0.957v-1.278c-0.836,0.284-1.895,0.588-2.959,0.588
		c-4.609,0-6.1-4.891-6.1-7.259v-0.106h9.354v-0.431c0-3.388-2.221-5.255-6.254-5.255c-4.564,0-6.879,2.252-6.879,6.689
		C74.109,48.434,79.611,49.215,81.977,49.215 M77.889,38.797c0.137-0.926,0.703-3.081,2.969-3.081c2.664,0,2.74,2.781,2.74,3.096
		v0.105h-5.725L77.889,38.797z"/>
	<path fill="#FFFFFF" d="M99.463,38.05v-3.516c-2.76,0.21-4.121,1.977-5.23,3.874l-0.141,0.221v-3.781h-3.773v14.038h3.773v-6.273
		C94.092,39.362,95.605,38.076,99.463,38.05"/>
	<path fill="#FFFFFF" d="M24.666,18.923v9.121c10.541-9.193,23.484-15.709,37.74-18.471c-0.146-0.002-0.299-0.009-0.445-0.009
		C48.484,9.564,35.785,12.956,24.666,18.923"/>
	<path fill="#FFFFFF" d="M108.891,14.278V5.581C99.217,1.975,88.764,0,77.85,0C59.311,0,41.639,5.632,26.775,16.075
		c10.912-5.3,23.004-8.097,35.186-8.097l0.455,0.011c2.664,0.013,5.324,0.169,7.971,0.447c2.457-0.228,4.945-0.347,7.463-0.347
		C88.842,8.09,99.322,10.296,108.891,14.278"/>
	<path fill="#FFFFFF" d="M31.955,24.319c9.119-4.269,19.285-6.668,30.006-6.668c13.766,0,26.625,3.942,37.523,10.747v-9.354
		c-8.824-4.774-18.652-7.911-29.078-9.02c-2.586,0.241-5.158,0.608-7.699,1.103C51.642,13.273,41.15,17.791,31.955,24.319"/>
</g>
</svg>
